<?xml version="1.0" standalone="no"?>
<!DOCTYPE svg PUBLIC "-//W3C//DTD SVG 20010904//EN"
 "http://www.w3.org/TR/2001/REC-SVG-20010904/DTD/svg10.dtd">
<svg version="1.0" xmlns="http://www.w3.org/2000/svg"
 width="500.000000pt" height="500.000000pt" viewBox="0 0 500.000000 500.000000"
 preserveAspectRatio="xMidYMid meet">
<metadata>
Created by potrace 1.14, written by Peter Selinger 2001-2017
</metadata>
<g transform="translate(0.000000,500.000000) scale(0.100000,-0.100000)"
fill="#000000" stroke="none">
<path d="M220 4982 c-105 -39 -178 -112 -205 -207 -23 -76 -18 -3494 5 -3540
49 -102 117 -162 215 -190 46 -14 116 -16 487 -13 l433 3 57 28 c33 16 76 49
102 78 83 92 76 -68 77 1881 l1 1735 -27 58 c-33 69 -81 117 -155 153 l-55 27
-445 2 c-397 2 -450 0 -490 -15z"/>
<path d="M2018 4981 c-93 -37 -148 -87 -187 -171 l-25 -55 0 -1115 c0 -613 3
-1124 7 -1135 5 -11 9 -22 9 -25 1 -3 12 -23 25 -45 32 -51 86 -99 143 -128
45 -22 49 -22 510 -22 l465 0 49 25 c65 33 118 85 153 151 l28 54 0 1115 c0
1090 0 1116 -20 1169 -21 58 -90 136 -142 160 -15 7 -37 18 -48 25 -14 8 -157
12 -470 13 -417 2 -453 1 -497 -16z"/>
<path d="M3823 4981 c-106 -42 -182 -126 -203 -226 -8 -35 -10 -704 -8 -2285
l3 -2235 25 -48 c37 -73 82 -119 146 -152 l59 -30 460 0 460 0 55 26 c69 33
123 87 155 155 l25 53 -2 2273 -3 2273 -27 45 c-38 64 -82 105 -146 137 l-57
28 -450 1 c-399 2 -455 0 -492 -15z"/>
</g>
</svg>
